<?xml version="1.0" standalone="no"?>
<!DOCTYPE svg PUBLIC "-//W3C//DTD SVG 20010904//EN"
 "http://www.w3.org/TR/2001/REC-SVG-20010904/DTD/svg10.dtd">
<svg version="1.0" xmlns="http://www.w3.org/2000/svg"
 width="1080.000000pt" height="1080.000000pt" viewBox="0 0 1080.000000 1080.000000"
 preserveAspectRatio="xMidYMid meet">

<g transform="translate(0.000000,1080.000000) scale(0.100000,-0.100000)"
fill="#000000" stroke="none">
<path d="M500 5400 l0 -4900 4900 0 4900 0 0 4900 0 4900 -4900 0 -4900 0 0
-4900z m9770 0 l0 -4850 -4870 0 -4870 0 0 4850 0 4850 4870 0 4870 0 0 -4850z"/>
<path d="M5331 9722 c-19 -10 -43 -34 -53 -53 -30 -56 -22 -105 25 -156 23
-26 22 -37 -23 -193 -16 -58 -53 -192 -82 -297 -29 -106 -55 -193 -58 -193 -4
0 -50 79 -104 176 -91 164 -97 178 -86 204 22 54 -19 120 -76 120 -83 0 -117
-90 -57 -152 l30 -33 12 -199 c7 -109 10 -200 9 -202 -2 -1 -69 48 -148 110
-130 102 -145 117 -147 147 -5 61 -66 96 -128 73 -19 -8 -45 -55 -45 -84 0
-26 52 -80 77 -80 18 0 63 -100 181 -404 21 -55 46 -104 54 -110 12 -7 45 -1
120 22 361 111 813 108 1166 -9 52 -17 97 -27 102 -23 7 7 86 200 203 497 7
16 19 27 30 27 25 0 77 54 77 80 0 29 -26 76 -45 84 -62 23 -126 -14 -129 -74
-1 -28 -18 -45 -145 -146 -79 -63 -146 -112 -148 -110 -3 2 1 93 8 203 l12
198 34 33 c24 24 33 42 33 66 0 77 -92 115 -147 60 -23 -23 -25 -31 -20 -76 6
-49 4 -54 -101 -244 -59 -106 -110 -188 -113 -181 -3 7 -48 164 -99 349 l-92
338 31 35 c72 82 9 215 -101 215 -13 0 -39 -8 -57 -18z m76 -28 c-3 -3 -12 -4
-19 -1 -8 3 -5 6 6 6 11 1 17 -2 13 -5z m58 -34 c16 -18 16 -20 2 -15 -14 6
-15 1 -10 -32 3 -21 2 -35 -2 -31 -7 6 -17 98 -11 98 2 0 11 -9 21 -20z m-121
-76 c4 -36 2 -44 -5 -31 -6 9 -8 21 -5 26 3 5 -3 11 -14 14 -11 3 -20 13 -19
24 0 16 1 16 9 -2 9 -19 9 -19 16 3 9 31 13 24 18 -34z m76 -214 c0 -5 -4 -10
-10 -10 -5 0 -10 5 -10 10 0 6 5 10 10 10 6 0 10 -4 10 -10z m37 -42 c-3 -8
-6 -5 -6 6 -1 11 2 17 5 13 3 -3 4 -12 1 -19z m-592 -48 c3 -6 -1 -7 -9 -4 -9
3 -16 1 -16 -5 0 -6 4 -11 9 -11 4 0 6 -11 3 -25 -2 -14 -8 -25 -12 -25 -13 0
-20 29 -9 35 5 4 7 11 4 16 -7 11 2 29 15 29 5 0 12 -4 15 -10z m1084 -9 c9
-6 11 -15 6 -27 -8 -18 -8 -18 -13 1 -2 11 -9 23 -16 27 -6 4 -6 8 -1 8 6 0
16 -4 24 -9z m-552 -48 c-3 -10 -5 -4 -5 12 0 17 2 24 5 18 2 -7 2 -21 0 -30z
m77 -6 c7 -6 6 -7 -4 -4 -8 2 -16 14 -17 28 -1 19 -1 20 4 4 3 -11 10 -24 17
-28z m-557 11 c-3 -8 -6 -5 -6 6 -1 11 2 17 5 13 3 -3 4 -12 1 -19z m390 0
c-3 -8 -6 -5 -6 6 -1 11 2 17 5 13 3 -3 4 -12 1 -19z m683 -2 c0 -3 -4 -8 -10
-11 -5 -3 -10 -1 -10 4 0 6 5 11 10 11 6 0 10 -2 10 -4z m-493 -48 c-3 -8 -6
-5 -6 6 -1 11 2 17 5 13 3 -3 4 -12 1 -19z m-587 -20 c0 -4 -4 -8 -9 -8 -6 0
-12 4 -15 8 -3 5 1 9 9 9 8 0 15 -4 15 -9z m10 -22 c0 -3 -4 -8 -10 -11 -5 -3
-10 -1 -10 4 0 6 5 11 10 11 6 0 10 -2 10 -4z m980 -25 c0 -6 -5 -13 -11 -16
-5 -4 -14 -18 -19 -31 -5 -13 -14 -24 -19 -24 -5 0 0 18 12 40 21 38 37 51 37
31z m-633 -26 c-15 -16 -19 -13 -11 9 3 9 10 13 15 10 5 -3 3 -11 -4 -19z
m276 -25 c7 -26 -7 -34 -24 -13 -10 12 -10 14 -1 9 7 -4 12 -1 12 8 0 22 7 20
13 -4z m-272 -13 c-10 -9 -11 -8 -5 6 3 10 9 15 12 12 3 -3 0 -11 -7 -18z
m-298 -24 c-4 -11 -3 -14 5 -9 7 4 10 2 7 -7 -3 -7 6 -26 20 -43 27 -31 31
-44 15 -44 -5 0 -10 5 -10 11 0 13 -26 40 -33 33 -3 -3 -8 0 -13 7 -4 8 -3 10
4 5 17 -10 15 6 -4 32 -9 13 -11 22 -4 22 6 0 8 5 4 12 -4 7 -3 8 4 4 6 -4 8
-14 5 -23z m519 -18 c-2 -14 -8 -25 -13 -25 -10 0 -12 43 -3 53 13 12 21 -3
16 -28z m-972 3 c0 -13 -7 -31 -14 -41 -13 -16 -14 -16 -19 4 -5 19 -8 20 -21
9 -24 -19 -19 -1 7 26 28 30 47 31 47 2z m737 -10 c-3 -8 -6 -5 -6 6 -1 11 2
17 5 13 3 -3 4 -12 1 -19z m279 -6 c-18 -16 -18 -16 -6 6 6 13 14 21 18 18 3
-4 -2 -14 -12 -24z m823 2 c1 11 4 17 7 13 3 -3 3 -15 -1 -28 -6 -17 -9 -19
-16 -8 -5 8 -8 21 -8 29 0 10 3 8 9 -5 8 -19 9 -19 9 -1z m-1452 -26 c-3 -7
-5 -2 -5 12 0 14 2 19 5 13 2 -7 2 -19 0 -25z m646 -7 c-4 -15 -8 -19 -13 -10
-5 6 -3 18 3 24 16 17 17 14 10 -14z m-623 -36 c-7 -45 -7 -46 -9 -13 -1 32 8
74 14 66 1 -2 -1 -25 -5 -53z m330 44 c0 8 2 12 5 10 2 -3 2 -15 -2 -28 -4
-17 -8 -19 -14 -9 -5 7 -9 20 -9 28 0 13 1 13 10 0 8 -12 10 -12 10 -1z m1067
-4 c0 -8 -4 -15 -9 -15 -10 0 -11 14 -1 23 9 10 10 9 10 -8z m-493 -20 c2 -7
-2 -21 -11 -32 -14 -17 -14 -17 -9 0 3 10 1 27 -4 37 -8 16 -7 18 4 14 8 -3
17 -12 20 -19z m-1294 -16 c0 -18 9 -23 40 -20 13 2 13 1 0 -8 -12 -9 -13 -11
-1 -11 8 0 12 -2 9 -5 -8 -8 -58 19 -58 32 0 6 -3 19 -7 29 -4 12 -3 15 5 10
7 -4 12 -16 12 -27z m686 5 c-4 -9 -9 -15 -11 -12 -3 3 -3 13 1 22 4 9 9 15
11 12 3 -3 3 -13 -1 -22z m340 -52 c-11 -10 -14 3 -7 38 l6 35 3 -33 c2 -19 1
-36 -2 -40z m-605 -4 c-7 -18 -9 -14 -9 22 0 36 2 40 9 23 5 -13 4 -33 0 -45z
m1289 17 c-7 -9 -15 -13 -17 -11 -6 6 20 36 26 30 2 -2 -2 -10 -9 -19z m-450
-11 c0 -2 -7 -4 -15 -4 -8 0 -15 4 -15 10 0 5 7 7 15 4 8 -4 15 -8 15 -10z
m420 -4 c0 -5 -2 -10 -4 -10 -3 0 -8 5 -11 10 -3 6 -1 10 4 10 6 0 11 -4 11
-10z m-960 -31 c0 -17 -4 -28 -10 -24 -5 3 -10 17 -10 31 0 13 5 24 10 24 6 0
10 -14 10 -31z m485 11 c-4 -11 -2 -20 4 -20 6 0 10 -11 9 -24 -1 -14 -6 -22
-10 -20 -5 3 -6 10 -2 15 3 5 1 16 -5 23 -6 7 -9 21 -5 30 9 23 17 20 9 -4z
m152 -42 c-2 -13 -4 -5 -4 17 -1 22 1 32 4 23 2 -10 2 -28 0 -40z m-1233 20
c-4 -6 0 -15 7 -20 12 -8 11 -9 -1 -5 -8 2 -16 13 -16 25 -1 12 3 19 8 16 4
-3 5 -10 2 -16z m1498 -4 c-9 -13 -23 -24 -30 -24 -9 0 -8 7 5 23 23 32 47 32
25 1z m-1089 1 c-3 -9 -8 -14 -10 -11 -3 3 -2 9 2 15 9 16 15 13 8 -4z m-471
-20 c3 3 10 0 16 -7 8 -10 5 -13 -13 -13 -13 0 -21 3 -19 7 2 4 0 9 -6 13 -5
3 -10 12 -10 18 0 7 6 4 14 -5 7 -10 15 -15 18 -13z m99 8 c13 -16 12 -17 -3
-4 -10 7 -18 15 -18 17 0 8 8 3 21 -13z m216 -15 c-3 -7 -5 -2 -5 12 0 14 2
19 5 13 2 -7 2 -19 0 -25z m36 -21 c4 -29 2 -45 -3 -42 -6 4 -10 27 -10 52 0
58 6 53 13 -10z m1280 34 c3 -11 -1 -22 -8 -24 -8 -4 -10 3 -7 19 5 29 8 30
15 5z m-366 -28 c-3 -10 -5 -4 -5 12 0 17 2 24 5 18 2 -7 2 -21 0 -30z m-1109
-31 c2 -7 -1 -12 -7 -12 -6 0 -11 7 -11 15 0 8 -7 15 -15 15 -8 0 -15 5 -15
11 0 14 42 -12 48 -29z m432 18 c0 -5 -5 -10 -11 -10 -5 0 -7 5 -4 10 3 6 8
10 11 10 2 0 4 -4 4 -10z m512 -12 c-7 -7 -12 -8 -12 -2 0 14 12 26 19 19 2
-3 -1 -11 -7 -17z m482 -19 c-8 -13 -24 -1 -24 18 0 13 3 13 15 3 8 -7 12 -16
9 -21z m-124 17 c0 -3 -4 -8 -10 -11 -5 -3 -10 -1 -10 4 0 6 5 11 10 11 6 0
10 -2 10 -4z m-1417 -29 c7 4 5 -2 -3 -13 -8 -10 -15 -20 -16 -22 0 -1 -1 12
-1 30 0 18 2 25 4 15 3 -10 9 -14 16 -10z m554 1 c-3 -8 -6 -5 -6 6 -1 11 2
17 5 13 3 -3 4 -12 1 -19z m-377 -14 c0 -2 -9 0 -20 6 -11 6 -20 13 -20 16 0
2 9 0 20 -6 11 -6 20 -13 20 -16z m877 4 c-3 -8 -6 -5 -6 6 -1 11 2 17 5 13 3
-3 4 -12 1 -19z m30 0 c-3 -8 -6 -5 -6 6 -1 11 2 17 5 13 3 -3 4 -12 1 -19z
m353 8 c0 -3 -4 -8 -10 -11 -5 -3 -10 -1 -10 4 0 6 5 11 10 11 6 0 10 -2 10
-4z m40 -33 c0 -20 -3 -24 -11 -16 -7 7 -9 19 -6 27 10 24 17 19 17 -11z
m-257 2 c4 -8 2 -17 -2 -20 -5 -2 -11 4 -14 15 -6 23 8 27 16 5z m321 -1 c5
-14 4 -15 -9 -4 -17 14 -19 20 -6 20 5 0 12 -7 15 -16z m-1343 -30 c18 -19 27
-32 18 -29 -14 5 -65 65 -56 65 2 0 19 -16 38 -36z m1139 32 c0 -2 -8 -10 -17
-17 -16 -13 -17 -12 -4 4 13 16 21 21 21 13z m-1095 -36 c3 -5 1 -10 -4 -10
-6 0 -11 5 -11 10 0 6 2 10 4 10 3 0 8 -4 11 -10z m-60 -29 c-6 -5 -25 10 -25
20 0 5 6 4 14 -3 8 -7 12 -15 11 -17z m115 14 c0 -8 -2 -15 -4 -15 -2 0 -6 7
-10 15 -3 8 -1 15 4 15 6 0 10 -7 10 -15z m1053 1 c4 -10 0 -12 -14 -9 -22 6
-26 23 -5 23 8 0 16 -6 19 -14z m-1173 -40 c0 -8 -4 -17 -9 -21 -12 -7 -24 12
-16 25 9 15 25 12 25 -4z m-107 -36 c3 -11 1 -23 -4 -26 -5 -3 -9 6 -9 20 0
31 6 34 13 6z m187 -10 c9 -17 8 -20 -9 -20 -22 0 -35 15 -26 30 10 16 23 12
35 -10z m1220 -35 c0 -5 -5 -3 -10 5 -5 8 -10 20 -10 25 0 6 5 3 10 -5 5 -8
10 -19 10 -25z m-995 -7 c-9 -6 -19 -7 -22 -4 -4 3 -1 6 6 6 7 0 9 4 6 10 -4
6 1 7 11 3 15 -6 15 -7 -1 -15z m405 12 c18 -12 2 -12 -25 0 -13 6 -15 9 -5 9
8 0 22 -4 30 -9z m162 3 c-6 -2 -10 -9 -7 -14 4 -5 -1 -6 -10 -2 -13 5 -14 7
-3 14 7 5 18 8 23 8 6 0 4 -3 -3 -6z m-862 -7 c0 -3 -4 -8 -10 -11 -5 -3 -10
-1 -10 4 0 6 5 11 10 11 6 0 10 -2 10 -4z m250 0 c0 -2 -11 -6 -25 -8 -13 -3
-22 -1 -19 3 5 9 44 13 44 5z m197 -2 c-3 -3 -12 -4 -19 -1 -8 3 -5 6 6 6 11
1 17 -2 13 -5z m480 0 c-3 -3 -12 -4 -19 -1 -8 3 -5 6 6 6 11 1 17 -2 13 -5z
m193 2 c0 -11 -19 -15 -25 -6 -3 5 1 10 9 10 9 0 16 -2 16 -4z m-1240 -41 c0
-5 -5 -3 -10 5 -5 8 -10 20 -10 25 0 6 5 3 10 -5 5 -8 10 -19 10 -25z m1315
15 c4 -6 -5 -10 -20 -10 -15 0 -24 4 -20 10 3 6 12 10 20 10 8 0 17 -4 20 -10z
m-1022 -7 c-7 -2 -21 -2 -30 0 -10 3 -4 5 12 5 17 0 24 -2 18 -5z m830 0 c-7
-2 -21 -2 -30 0 -10 3 -4 5 12 5 17 0 24 -2 18 -5z m267 -28 c0 -5 -5 -3 -10
5 -5 8 -10 20 -10 25 0 6 5 3 10 -5 5 -8 10 -19 10 -25z m-1290 5 c-8 -5 -24
-9 -35 -9 l-20 0 20 9 c11 5 27 9 35 9 13 1 13 0 0 -9z m33 -17 c-7 -2 -19 -2
-25 0 -7 3 -2 5 12 5 14 0 19 -2 13 -5z m1150 0 c-7 -2 -19 -2 -25 0 -7 3 -2
5 12 5 14 0 19 -2 13 -5z"/>
<path d="M4490 9001 c0 -25 6 -27 13 -6 4 8 2 17 -3 20 -6 4 -10 -3 -10 -14z"/>
<path d="M3120 8921 c0 -5 42 -56 93 -114 346 -390 561 -627 568 -627 5 0 9 4
9 9 0 5 -120 144 -267 308 -148 164 -294 329 -327 366 -55 63 -76 79 -76 58z"/>
<path d="M6926 8419 c-27 -32 -33 -49 -17 -49 10 0 61 62 61 73 0 16 -20 5
-44 -24z"/>
<path d="M7909 8312 c-75 -53 -256 -182 -402 -286 -147 -103 -267 -193 -267
-198 0 -15 24 -3 93 46 34 24 157 110 272 192 116 81 267 188 338 237 70 50
127 94 127 99 0 19 -32 1 -161 -90z"/>
<path d="M5190 8348 c-370 -35 -708 -170 -1037 -415 -39 -29 -74 -53 -76 -53
-3 0 -38 37 -78 83 -40 45 -76 84 -81 85 -25 10 0 -29 66 -105 l75 -85 -63
-59 c-54 -50 -102 -103 -231 -256 l-20 -24 -127 86 c-70 47 -130 85 -133 85
-3 0 -5 -6 -5 -13 0 -7 44 -40 98 -75 53 -34 110 -72 126 -85 l28 -23 -46 -70
c-26 -38 -73 -122 -104 -186 -66 -136 -42 -130 -229 -62 -138 50 -133 48 -133
32 0 -7 55 -33 123 -57 67 -24 132 -47 144 -52 l22 -8 -34 -100 c-74 -214
-102 -370 -112 -612 l-6 -157 -56 -6 c-149 -17 -211 -29 -211 -41 0 -14 1 -14
177 9 102 13 103 13 103 -46 0 -50 29 -231 50 -310 10 -40 18 -73 17 -73 -1
-1 -48 -19 -104 -41 -57 -21 -103 -45 -103 -51 0 -16 2 -16 37 -2 15 6 62 24
104 39 l76 28 28 -81 c15 -45 57 -144 93 -220 63 -132 65 -138 46 -151 -46
-33 -68 -55 -62 -62 4 -4 25 5 46 20 21 14 43 26 48 26 5 0 30 -30 54 -67 50
-77 138 -188 217 -273 39 -42 51 -63 46 -76 -5 -14 -3 -16 11 -11 13 5 34 -6
75 -40 31 -26 58 -50 61 -53 9 -10 153 -114 195 -141 189 -122 461 -234 677
-279 l57 -11 -6 -50 c-8 -64 13 -67 23 -3 l7 46 46 -6 c100 -12 420 -17 491
-8 41 5 76 9 77 8 1 -1 11 -58 22 -126 12 -69 24 -135 26 -147 l5 -23 -741 0
c-407 0 -739 4 -737 8 2 5 43 100 92 211 49 111 86 204 82 208 -10 10 -14 3
-96 -186 -44 -99 -86 -194 -95 -211 l-15 -29 -1008 -3 -1007 -3 -60 -30 c-51
-25 -64 -38 -85 -80 l-25 -50 -2 -427 c-2 -276 1 -428 7 -428 5 0 17 17 25 38
22 51 58 86 119 114 l51 23 3268 3 3267 2 0 510 c0 503 0 510 -20 510 -19 0
-20 -7 -20 -90 l0 -90 -605 0 c-452 0 -605 3 -605 12 0 6 -24 37 -52 67 -59
63 -97 105 -208 231 -41 47 -79 90 -85 96 -5 6 -77 86 -160 177 -82 92 -153
167 -157 167 -24 0 -18 -7 307 -370 110 -123 230 -258 267 -299 l67 -76 -871
-3 c-479 -1 -872 -1 -874 0 -4 4 -54 291 -51 294 1 2 47 12 102 23 119 24 299
80 390 121 37 17 73 30 80 30 7 0 21 -20 32 -45 10 -25 24 -45 31 -45 16 0 16
3 -12 59 l-25 48 87 48 c264 147 501 361 681 613 36 50 71 92 79 92 7 0 12 8
11 18 -2 9 29 82 68 162 39 80 84 182 100 227 29 87 28 85 81 66 6 -3 12 1 12
9 0 7 -13 19 -30 25 l-29 11 14 49 c17 59 42 198 50 278 3 33 8 79 11 102 l5
41 74 -5 c51 -4 75 -2 75 5 0 10 -37 18 -115 24 l-30 3 -3 85 c-3 120 -7 132
-40 128 l-27 -3 -6 -195 c-3 -107 -12 -228 -19 -268 l-13 -72 -59 56 c-48 46
-63 55 -83 50 -21 -5 -29 0 -50 34 -24 38 -69 70 -99 70 -8 0 -22 -8 -32 -17
-15 -16 -19 -15 -62 8 -49 26 -71 56 -34 47 39 -11 38 30 -12 377 -9 61 -21
137 -26 170 -6 33 -21 156 -34 274 -14 117 -29 218 -35 224 -7 7 -14 7 -24 -2
-8 -6 -22 -9 -31 -5 -9 4 -18 0 -22 -9 -6 -16 -52 -35 -129 -55 -22 -6 -64
-17 -93 -26 -29 -8 -60 -12 -69 -9 -14 6 -15 1 -9 -37 8 -54 14 -64 31 -50 7
6 49 16 93 22 79 12 111 7 82 -13 -13 -8 -13 -11 2 -23 12 -9 19 -33 22 -81 3
-38 10 -72 17 -75 8 -6 8 -13 0 -28 -8 -15 -8 -29 -1 -48 13 -34 30 -160 37
-272 3 -59 9 -85 19 -89 30 -11 12 -33 -41 -48 -62 -19 -75 -15 -75 22 0 15
-4 52 -10 82 -18 103 -39 265 -46 351 -7 81 -26 150 -42 150 -4 0 -13 -9 -20
-20 -10 -17 -9 -25 8 -48 21 -28 45 -159 59 -322 4 -47 10 -90 14 -96 3 -6 -3
-18 -14 -27 -20 -18 -25 -37 -9 -37 13 0 42 -57 32 -63 -30 -19 -122 1 -97 20
6 5 10 44 10 88 l0 80 -37 3 c-27 2 -43 -3 -57 -17 -31 -31 -41 -26 -41 21 0
44 -19 108 -32 108 -8 0 -12 -17 -8 -35 34 -142 34 -135 11 -166 l-22 -29 25
-10 c26 -9 40 -42 34 -76 -3 -17 4 -19 57 -19 73 0 85 -7 85 -49 0 -17 5 -37
11 -43 7 -7 9 -19 6 -27 -8 -22 -77 -21 -148 1 -44 14 -89 16 -239 14 -147 -2
-192 1 -221 13 -36 15 -104 12 -114 -4 -3 -4 15 -13 40 -19 63 -16 82 -53 65
-130 -12 -58 -58 -161 -98 -221 -12 -19 -48 -59 -79 -88 -56 -53 -170 -128
-179 -119 -4 4 86 75 112 87 14 7 84 85 84 95 0 4 9 14 21 24 19 15 20 21 11
71 -6 34 -7 63 -1 78 5 14 7 52 3 86 -5 49 -14 73 -49 126 -51 76 -102 220
-145 408 -14 59 -7 102 16 102 23 0 64 46 64 72 0 23 0 23 -23 -4 -52 -64
-119 -48 -123 31 -2 37 3 46 55 101 31 33 60 60 64 60 14 0 7 -61 -8 -66 -8
-4 -15 -11 -15 -16 0 -6 6 -5 15 2 12 10 15 7 21 -14 14 -58 24 -19 23 93 -1
114 -23 239 -45 261 -5 5 -23 11 -40 14 -24 5 -36 0 -54 -19 -29 -31 -40 -32
-40 -2 0 28 9 41 37 56 21 11 22 13 8 59 -19 62 -19 102 0 102 20 0 188 78
196 91 3 6 35 21 70 33 35 13 98 39 139 59 41 21 83 37 92 37 9 0 19 4 22 9 3
5 32 19 63 31 32 12 87 33 123 47 36 14 74 30 85 35 11 5 30 10 42 11 12 0 20
4 18 8 -3 3 35 20 84 36 103 36 94 39 215 -66 238 -207 433 -492 549 -801 37
-99 81 -261 92 -342 8 -55 28 -77 53 -61 18 12 19 16 9 80 -8 48 -8 47 86 58
41 5 57 11 57 22 0 11 -7 13 -27 9 -16 -3 -51 -8 -78 -11 l-50 -6 -14 58 c-15
67 -79 256 -110 326 -11 27 -21 52 -21 55 0 4 36 20 80 37 44 16 80 35 80 42
0 17 4 18 -91 -19 -69 -26 -84 -29 -91 -17 -5 8 -33 56 -62 108 -29 52 -83
134 -120 183 -36 49 -66 92 -66 96 0 4 12 15 28 24 50 31 86 65 75 71 -6 4
-36 -12 -67 -34 l-56 -40 -107 109 c-60 60 -141 135 -180 166 -40 31 -73 61
-73 67 0 6 19 33 42 60 57 67 38 77 -21 10 -38 -43 -51 -52 -68 -47 -25 8 -53
-16 -53 -45 0 -23 -8 -27 -75 -33 -27 -2 -51 -9 -53 -15 -2 -6 -16 -11 -30
-11 -21 0 -24 -2 -12 -10 12 -8 11 -10 -7 -10 -12 0 -25 -5 -28 -10 -3 -6 -17
-7 -31 -4 -25 6 -35 -10 -11 -19 6 -3 -5 -6 -25 -6 -20 -1 -40 -6 -44 -12 -4
-8 -9 -7 -15 2 -7 11 -9 10 -9 -3 0 -24 -40 -45 -51 -27 -6 11 -9 10 -14 -2
-4 -10 -14 -14 -28 -12 -13 3 -31 -4 -46 -18 -14 -13 -35 -22 -53 -21 -17 0
-31 -5 -35 -14 -3 -7 -9 -11 -15 -8 -5 3 -15 -2 -23 -12 -7 -10 -24 -19 -37
-19 -14 -1 -35 -9 -48 -18 -27 -19 -44 -22 -35 -7 3 6 4 10 0 10 -8 0 -89 -54
-93 -61 -1 -3 -13 -4 -25 -2 -14 3 -32 -4 -47 -19 -15 -13 -35 -22 -47 -20
-17 3 -26 -4 -35 -28 l-13 -32 -44 84 c-41 76 -80 124 -213 258 -33 34 -122
83 -241 135 -46 20 -93 24 -90 9 1 -7 -8 -11 -21 -10 -13 0 -22 4 -19 9 10 16
-69 6 -104 -14 -35 -20 -38 -20 -50 -3 -7 10 -13 21 -13 26 0 19 -162 -11
-217 -40 -12 -7 -33 -12 -46 -12 -13 0 -35 -8 -48 -18 -13 -10 -32 -21 -41
-25 -10 -3 -20 -17 -24 -31 -3 -14 -15 -27 -30 -30 -13 -4 -24 -13 -24 -21 0
-8 -9 -15 -19 -15 -27 0 -71 -79 -78 -141 -4 -34 -12 -53 -24 -60 -46 -24 -69
-137 -47 -230 5 -24 11 -89 12 -144 2 -55 7 -115 11 -132 7 -32 7 -33 -27 -33
-19 0 -59 -4 -89 -9 -141 -24 -459 -64 -464 -59 -9 9 53 149 118 264 165 294
442 575 737 746 190 111 400 192 625 240 99 21 135 23 360 23 234 -1 258 -2
380 -28 169 -36 340 -95 482 -165 105 -52 114 -55 129 -40 10 9 14 24 10 33
-9 23 -230 126 -371 173 -265 87 -553 118 -845 90z m-518 -373 c0 -5 -5 -11
-11 -13 -6 -2 -11 4 -11 13 0 9 5 15 11 13 6 -2 11 -8 11 -13z m-92 -15 c0 -5
-7 -10 -15 -10 -8 0 -15 5 -15 10 0 6 7 10 15 10 8 0 15 -4 15 -10z m-123 -46
c-9 -9 -28 6 -21 18 4 6 10 6 17 -1 6 -6 8 -13 4 -17z m68 -24 c-3 -5 -11 -10
-16 -10 -6 0 -7 5 -4 10 3 6 11 10 16 10 6 0 7 -4 4 -10z m-170 -50 c3 -5 2
-10 -4 -10 -5 0 -13 5 -16 10 -3 6 -2 10 4 10 5 0 13 -4 16 -10z m445 -165
c14 -8 37 -14 53 -15 17 0 27 -5 27 -15 0 -8 9 -15 20 -15 11 0 20 5 20 10 0
22 51 8 90 -25 23 -19 47 -35 53 -35 6 0 8 -3 4 -6 -3 -4 3 -14 15 -23 13 -11
23 -36 29 -72 5 -31 16 -59 25 -66 20 -14 19 -15 -64 -33 -28 -7 -55 -16 -58
-21 -3 -5 -20 -9 -38 -9 -61 0 -255 -44 -386 -87 -25 -8 -61 -18 -80 -22 -19
-5 -48 -16 -65 -25 -37 -19 -61 -20 -72 -3 -10 18 -51 28 -56 14 -6 -19 -75
12 -79 36 -2 12 -9 22 -17 22 -8 0 -16 6 -19 14 -3 10 0 12 12 8 9 -4 16 -3
17 1 0 4 2 22 4 41 2 21 0 29 -6 20 -16 -27 -21 1 -5 35 9 19 16 41 16 49 0 9
5 19 10 22 6 3 10 15 10 26 0 16 4 19 20 14 12 -4 27 -2 34 4 17 15 49 3 42
-16 -11 -28 24 -24 62 7 22 17 58 36 81 41 22 5 76 33 118 63 71 48 121 74
148 75 6 0 21 -6 35 -14z m640 -335 c0 -5 -9 -10 -20 -10 -11 0 -20 5 -20 10
0 6 9 10 20 10 11 0 20 -4 20 -10z m-109 -128 c9 -27 9 -37 0 -40 -6 -2 -11
-13 -11 -24 0 -12 -5 -18 -13 -15 -17 7 -44 -14 -48 -38 -5 -22 -49 -30 -61
-11 -11 16 -10 48 2 41 5 -3 14 12 21 34 8 29 18 40 35 44 15 3 24 0 24 -9 0
-7 5 -16 12 -20 8 -5 9 7 5 45 -5 45 -4 51 8 41 8 -6 19 -28 26 -48z m-1101
38 c0 -5 -4 -10 -10 -10 -5 0 -10 5 -10 10 0 6 5 10 10 10 6 0 10 -4 10 -10z
m113 -57 c-7 -2 -21 -2 -30 0 -10 3 -4 5 12 5 17 0 24 -2 18 -5z m624 -29 c-3
-3 -12 -4 -19 -1 -8 3 -5 6 6 6 11 1 17 -2 13 -5z m-667 -12 c0 -5 -16 -16
-35 -25 -26 -13 -35 -14 -35 -4 0 7 15 18 33 24 17 5 33 11 35 12 1 0 2 -3 2
-7z m1360 -90 c0 -57 -17 -51 -40 14 l-18 51 29 -11 c26 -9 29 -15 29 -54z
m-1445 48 c-3 -5 -11 -10 -16 -10 -6 0 -7 5 -4 10 3 6 11 10 16 10 6 0 7 -4 4
-10z m439 -52 c10 -13 12 -26 7 -31 -14 -14 -91 -21 -91 -9 0 22 13 42 26 42
8 0 14 5 14 10 0 18 29 10 44 -12z m476 -8 c0 -5 -5 -10 -11 -10 -5 0 -7 5 -4
10 3 6 8 10 11 10 2 0 4 -4 4 -10z m387 -26 c16 -24 16 -28 -2 -60 -20 -37
-40 -46 -32 -14 3 11 1 20 -5 20 -6 0 -8 9 -5 19 2 10 1 25 -4 32 -22 36 24
39 48 3z m-1322 -29 c0 -5 -10 -11 -22 -13 -16 -2 -23 2 -23 13 0 11 7 15 23
13 12 -2 22 -7 22 -13z m-145 -35 c3 -15 19 -32 38 -42 27 -13 44 -37 89 -130
31 -62 58 -107 61 -99 3 8 -5 33 -16 55 -11 23 -31 67 -43 99 -19 47 -21 60
-10 66 37 24 79 -28 101 -125 7 -27 15 -58 20 -69 4 -11 15 -51 24 -90 23 -99
112 -278 171 -344 62 -68 195 -179 260 -216 64 -37 68 -41 99 -104 29 -57 28
-66 -8 -75 -14 -3 -38 -19 -54 -36 -17 -16 -37 -30 -44 -30 -8 0 -31 -9 -53
-20 -23 -12 -59 -20 -88 -20 -27 0 -75 -7 -106 -15 -53 -13 -228 -41 -416 -66
-44 -5 -111 -17 -150 -25 -38 -8 -97 -19 -130 -24 -33 -5 -91 -13 -130 -19
-38 -6 -78 -12 -88 -14 -23 -2 -47 52 -83 190 -43 162 -56 253 -61 450 -7 248
15 431 74 613 l18 55 50 7 c76 11 365 47 405 51 56 6 64 3 70 -23z m631 -36
c24 -24 48 -44 54 -45 5 0 34 -27 63 -60 50 -56 66 -98 40 -100 -7 -1 -56 -3
-108 -5 -154 -7 -152 -6 -170 -38 -9 -16 -21 -31 -28 -34 -17 -5 -16 55 1 65
13 7 28 82 42 202 10 82 36 86 106 15z m178 14 c23 -8 23 -10 8 -25 -15 -16
-20 -15 -62 6 -63 31 -68 45 -14 36 24 -4 55 -12 68 -17z m305 -144 c41 -20
65 -58 50 -81 -5 -8 -27 -17 -49 -19 -22 -3 -44 -5 -50 -5 -5 -1 -38 2 -72 6
-52 6 -63 5 -63 -7 0 -8 4 -18 10 -24 5 -5 7 -25 4 -44 -8 -44 -54 -70 -102
-58 l-31 8 6 58 c6 59 29 90 64 84 9 -2 23 13 35 35 31 59 125 81 198 47z
m-709 -201 c-6 -15 -11 -34 -14 -52 -2 -8 -41 38 -41 48 0 11 17 19 44 20 13
1 16 -3 11 -16z m141 -48 c9 -19 9 -27 -1 -35 -9 -7 -15 -3 -24 16 -11 24 -8
44 7 44 4 0 12 -11 18 -25z m244 -25 c0 -5 -10 -10 -22 -10 -19 0 -20 2 -8 10
19 13 30 13 30 0z m60 -85 c0 -11 -105 -55 -130 -55 -15 0 -30 -4 -35 -9 -6
-4 -25 -11 -44 -15 -28 -5 -32 -4 -21 9 6 7 33 17 58 21 26 3 65 17 87 30 36
22 85 32 85 19z m1928 -168 c3 -12 -4 -17 -22 -17 -28 0 -33 9 -14 28 15 15
32 10 36 -11z m-2198 -522 c0 -8 -4 -15 -9 -15 -13 0 -22 16 -14 24 11 11 23
6 23 -9z m340 -92 c0 -2 -4 -3 -9 -3 -9 0 -31 54 -31 74 1 9 40 -61 40 -71z
m-410 57 c0 -5 -4 -10 -10 -10 -5 0 -10 5 -10 10 0 6 5 10 10 10 6 0 10 -4 10
-10z m-98 -71 c-18 -16 -40 -29 -49 -29 -9 0 -45 -9 -79 -21 -43 -15 -65 -28
-72 -44 -7 -16 -25 -28 -52 -35 -26 -7 -45 -19 -51 -33 -5 -12 -16 -33 -24
-47 -9 -15 -13 -36 -9 -53 5 -24 -2 -36 -43 -80 -94 -101 -142 -164 -155 -202
-15 -45 -29 -53 -53 -29 -16 16 -16 18 6 29 22 12 36 45 18 45 -5 0 -9 -4 -9
-10 0 -5 -12 -10 -27 -10 -31 1 -61 36 -142 165 -48 76 -123 226 -117 232 6 7
153 32 246 43 47 6 110 15 140 22 30 6 64 12 75 14 11 1 65 10 120 19 55 9
129 20 165 25 36 4 81 15 100 23 47 21 52 11 12 -24z m1976 -389 c2 -14 8 -29
14 -35 7 -7 9 0 5 23 -6 29 -4 32 18 32 21 0 25 -5 25 -27 0 -16 6 -46 14 -68
8 -22 17 -59 21 -82 6 -40 6 -42 -22 -45 -21 -2 -27 -8 -26 -23 5 -39 44 -230
55 -264 8 -27 7 -36 -6 -49 -19 -19 -18 -20 -41 98 -18 93 -22 101 -35 80 -10
-16 -6 -45 20 -141 13 -49 15 -70 7 -78 -15 -15 -35 -14 -34 2 1 33 -4 47 -18
47 -18 0 -19 -14 -5 -41 14 -26 -2 -31 -60 -21 -43 7 -45 9 -48 45 -1 21 -9
57 -17 80 -16 47 -16 44 9 49 14 2 22 -8 34 -47 16 -49 17 -49 22 -20 4 17 3
41 -2 54 -5 14 -4 28 2 36 7 9 5 21 -7 43 -17 29 -17 30 13 60 17 17 44 32 60
34 36 4 33 22 -4 25 -15 0 -32 2 -38 2 -6 1 -14 19 -18 41 -4 24 -12 40 -20
40 -15 0 -13 -28 6 -67 8 -17 8 -26 -2 -38 -22 -26 -37 -17 -43 26 -3 23 -11
47 -17 53 -10 8 -11 0 -6 -36 6 -42 5 -48 -11 -48 -15 0 -23 16 -37 73 -11 39
-20 79 -21 87 0 9 -4 21 -9 28 -10 17 11 42 35 42 11 0 19 4 19 9 0 10 91 44
98 36 3 -3 7 -17 8 -31 3 -31 9 -38 23 -30 7 5 7 15 1 32 -15 38 -12 46 13 42
15 -2 23 -11 25 -28z m130 -17 c14 -36 35 -164 28 -170 -15 -15 -34 11 -41 54
-4 26 -11 54 -17 60 -6 7 -8 22 -5 34 3 12 0 22 -9 26 -18 7 -8 23 15 23 11 0
23 -11 29 -27z m76 -56 c9 -23 16 -53 16 -65 0 -12 11 -74 25 -138 19 -90 22
-121 13 -137 -10 -19 -12 -17 -23 19 -16 48 -57 259 -57 290 0 13 -7 29 -14
35 -20 16 -17 39 5 39 12 0 23 -14 35 -43z m-440 -24 c3 -10 19 -85 36 -168
63 -297 64 -314 28 -300 -10 4 -19 33 -28 90 -7 47 -16 85 -20 85 -12 0 -20
-84 -9 -94 14 -15 11 -36 -6 -36 -27 0 -32 22 -75 305 -8 52 -6 65 11 65 5 0
9 -13 9 -29 0 -16 7 -34 15 -41 8 -7 16 -29 16 -49 2 -55 13 -94 27 -99 17 -5
7 57 -38 227 -12 47 20 89 34 44z m513 -96 c15 -50 17 -117 3 -117 -11 0 -26
56 -34 129 -7 64 10 58 31 -12z m-109 -47 c3 -19 0 -22 -19 -17 -13 3 -29 1
-36 -5 -10 -8 -17 -8 -25 0 -15 15 1 35 24 29 11 -3 21 0 25 9 8 21 27 11 31
-16z m-284 -96 c3 -30 4 -60 0 -65 -8 -14 -34 9 -34 32 0 10 -5 30 -12 44 -10
22 -9 28 3 36 28 17 36 8 43 -47z m304 28 c3 -17 -2 -22 -17 -22 -14 0 -21 6
-21 18 0 38 33 41 38 4z m-499 -31 c15 -45 14 -61 -3 -61 -20 0 -44 79 -30
101 8 14 19 1 33 -40z m444 33 c9 -10 -4 -34 -19 -34 -8 0 -14 9 -14 20 0 19
19 27 33 14z m69 -66 c7 -24 3 -88 -6 -88 -12 -1 -37 80 -30 92 8 12 31 10 36
-4z m-50 -58 c4 -30 5 -61 3 -67 -9 -28 -23 -10 -34 44 -15 76 -14 85 7 81 13
-2 19 -17 24 -58z m1928 -869 l205 -6 2 -374 3 -374 -3233 4 c-3481 3 -3280 6
-3374 -48 l-43 -24 0 351 c0 364 1 371 44 419 35 39 64 45 256 51 243 8 5874
9 6140 1z"/>
<path d="M4263 7349 c-1 -13 5 -19 18 -19 24 0 25 16 1 29 -14 8 -18 6 -19
-10z"/>
<path d="M3700 6494 c-25 -7 -69 -14 -98 -15 -29 -1 -55 -5 -58 -10 -3 -5 2
-45 10 -89 9 -44 13 -92 10 -108 -4 -17 4 -58 20 -105 14 -43 26 -95 26 -117
0 -21 4 -41 8 -44 4 -2 55 2 112 11 58 8 125 17 149 20 l43 5 -6 37 c-4 20 -9
64 -13 99 -6 59 -5 62 16 62 27 0 35 19 23 61 -6 27 -14 34 -33 35 -45 1 -49
4 -49 33 0 15 -4 41 -9 57 -5 16 -12 41 -15 57 -6 24 -10 27 -49 26 -23 0 -62
-7 -87 -15z"/>
<path d="M6317 5234 c-7 -8 4 -44 14 -44 12 0 12 37 0 44 -4 3 -11 3 -14 0z"/>
<path d="M6255 5200 c-7 -12 2 -30 16 -30 5 0 9 9 9 20 0 21 -15 27 -25 10z"/>
<path d="M6480 5086 c0 -9 5 -16 10 -16 6 0 10 4 10 9 0 6 -4 13 -10 16 -5 3
-10 -1 -10 -9z"/>
<path d="M6405 4860 c-3 -5 1 -10 10 -10 9 0 13 5 10 10 -3 6 -8 10 -10 10 -2
0 -7 -4 -10 -10z"/>
<path d="M6357 4703 c-8 -7 11 -33 24 -33 5 0 9 9 9 20 0 19 -20 27 -33 13z"/>
<path d="M5668 3803 c22 -9 12 -23 -17 -23 -21 0 -37 -9 -56 -32 -23 -28 -27
-39 -23 -80 6 -54 21 -71 105 -113 41 -21 51 -31 48 -48 -8 -38 -43 -46 -102
-25 -37 14 -48 7 -58 -34 -5 -20 -2 -29 13 -37 29 -15 134 -17 169 -2 43 17
67 67 59 117 -4 21 -7 46 -8 55 -1 9 -8 15 -14 12 -7 -2 -15 0 -18 5 -3 5 -31
22 -61 37 -45 22 -56 31 -53 49 3 19 9 21 57 20 29 -1 57 -7 61 -13 4 -7 13 5
23 29 15 38 14 41 -3 50 -10 6 -29 10 -42 10 -13 0 -36 7 -52 15 -15 8 -31 15
-35 14 -3 0 0 -3 7 -6z"/>
<path d="M3819 3773 c-6 -16 -26 -71 -44 -123 -56 -162 -76 -210 -88 -210 -24
-1 19 -18 52 -22 32 -3 35 -1 48 40 14 40 17 42 53 42 43 0 61 -13 80 -59 11
-27 18 -31 50 -31 42 0 54 8 39 26 -6 7 -17 35 -24 61 -11 41 -95 286 -99 289
0 1 -13 4 -29 8 -23 6 -29 3 -38 -21z m61 -205 c0 -5 -11 -8 -25 -8 -28 0 -30
7 -13 62 l12 40 13 -44 c7 -23 13 -46 13 -50z"/>
<path d="M4844 3791 c-2 -2 -4 -88 -4 -190 l0 -186 110 -2 110 -2 0 40 0 39
-76 0 -75 0 3 38 4 37 59 3 c33 2 60 4 61 5 1 1 4 16 7 34 l6 32 -62 3 -62 3
-3 39 -3 39 70 -7 71 -7 0 40 0 40 -106 3 c-58 2 -108 1 -110 -1z"/>
<path d="M4060 3593 c0 -118 4 -192 9 -184 5 8 19 12 35 9 25 -5 25 -5 28 71
l3 76 54 3 c37 3 56 0 62 -10 5 -7 9 -49 10 -93 0 -44 3 -74 6 -67 2 6 17 12
33 12 l27 0 8 179 c4 99 4 185 0 190 -3 6 -21 11 -40 11 l-34 0 -3 -72 -3 -73
-55 0 c-37 0 -55 4 -56 13 -1 6 -2 39 -3 72 l-1 60 -40 0 -40 0 0 -197z"/>
<path d="M4409 3786 c-2 -2 -3 -87 -1 -188 3 -184 3 -185 25 -182 12 1 27 3
34 3 9 1 13 33 15 108 l3 106 31 -59 c50 -97 56 -104 76 -93 10 5 18 15 18 21
0 6 6 19 14 27 7 9 24 36 37 61 l24 46 0 -111 0 -110 38 0 c20 0 37 3 37 8 0
4 0 88 0 187 l0 180 -29 0 c-36 0 -51 -14 -75 -69 -11 -22 -22 -41 -26 -41 -4
0 -13 -18 -20 -40 -7 -22 -16 -40 -20 -40 -11 0 -31 51 -24 62 5 7 2 8 -6 3
-10 -6 -12 -4 -7 9 4 9 3 15 -1 12 -5 -3 -23 20 -41 50 -28 48 -36 54 -65 54
-18 0 -35 -2 -37 -4z"/>
<path d="M5127 3603 c2 -187 3 -188 25 -192 13 -1 26 -8 30 -15 6 -8 8 -8 8 2
0 8 16 12 46 12 56 0 132 38 155 78 23 41 25 180 4 226 -25 53 -81 76 -186 76
l-84 0 2 -187z m169 104 c0 -1 8 -13 17 -27 20 -29 22 -114 4 -150 -7 -14 -23
-26 -35 -28 -12 -2 -22 -8 -22 -13 0 -5 -14 -9 -32 -9 l-31 0 7 111 c3 62 9
116 12 121 5 8 76 3 80 -5z"/>
<path d="M5989 3782 c-23 -3 -29 -13 -53 -85 -15 -45 -32 -91 -36 -102 -16
-37 -60 -166 -60 -176 0 -5 18 -9 39 -9 34 0 40 3 46 27 9 39 23 53 52 53 17
0 22 -4 17 -12 -5 -9 -2 -9 9 1 22 18 43 1 52 -40 4 -18 16 -34 28 -38 22 -8
67 -3 67 9 0 4 -14 47 -31 96 -16 49 -44 130 -60 181 -16 51 -33 94 -37 95 -4
2 -19 2 -33 0z m31 -222 c0 -4 -11 -6 -25 -6 -29 0 -29 1 -13 61 l12 45 13
-48 c6 -26 12 -49 13 -52z"/>
<path d="M6200 3778 c0 -2 -1 -85 -3 -186 -1 -133 1 -182 10 -182 6 0 13 -4
15 -8 2 -4 40 -5 86 -2 75 6 86 10 112 36 47 48 43 130 -8 160 -24 13 -24 15
-4 11 12 -3 20 -1 17 4 -3 4 1 19 10 32 8 13 12 27 8 30 -3 4 0 7 7 7 11 0 11
3 2 12 -7 7 -12 20 -12 30 0 36 -57 58 -152 58 -49 0 -88 -1 -88 -2z m121 -75
c0 -11 3 -13 6 -5 7 19 23 14 32 -10 12 -32 -13 -58 -56 -58 -32 0 -33 1 -33
39 0 38 5 44 43 50 4 0 7 -7 8 -16z m23 -153 c18 -7 26 -17 26 -34 0 -29 -25
-46 -69 -46 -30 0 -31 1 -31 45 0 41 2 45 24 45 14 0 36 -4 50 -10z"/>
<path d="M6520 3773 c-1 -5 0 -86 0 -180 1 -129 -2 -173 -11 -173 -32 0 6 -13
41 -14 l40 -2 0 73 c0 63 2 73 18 73 21 0 69 -81 58 -99 -4 -6 -3 -10 2 -9 5
2 18 -7 28 -20 21 -25 94 -39 94 -18 0 15 -30 74 -58 113 -12 16 -19 33 -15
37 3 3 1 6 -6 6 -7 0 1 13 18 29 17 16 31 37 32 48 0 10 2 29 3 43 4 32 -19
67 -55 86 -29 15 -189 21 -189 7z m144 -79 c22 -22 20 -50 -6 -68 -43 -30 -58
-21 -58 34 0 46 2 50 24 50 14 0 32 -7 40 -16z"/>
<path d="M6780 3761 c0 -4 25 -58 55 -118 50 -100 55 -116 55 -176 l0 -65 40
-4 40 -4 0 69 c0 76 33 163 52 136 7 -10 8 -8 3 8 -4 16 5 42 29 86 20 35 36
67 36 70 0 4 -20 7 -44 7 -36 0 -46 -4 -51 -20 -4 -11 -11 -18 -16 -15 -5 3
-6 0 -4 -8 3 -7 -6 -38 -20 -68 -13 -30 -25 -46 -25 -37 0 10 -14 47 -32 83
-32 65 -32 65 -75 65 -24 0 -43 -4 -43 -9z"/>
<path d="M4011 3614 c0 -11 3 -14 6 -6 3 7 2 16 -1 19 -3 4 -6 -2 -5 -13z"/>
<path d="M5421 3594 c0 -11 3 -14 6 -6 3 7 2 16 -1 19 -3 4 -6 -2 -5 -13z"/>
<path d="M6156 3427 c3 -10 9 -15 12 -12 3 3 0 11 -7 18 -10 9 -11 8 -5 -6z"/>
<path d="M4141 3414 c0 -11 3 -14 6 -6 3 7 2 16 -1 19 -3 4 -6 -2 -5 -13z"/>
<path d="M6608 3413 c6 -2 18 -2 25 0 6 3 1 5 -13 5 -14 0 -19 -2 -12 -5z"/>
<path d="M6771 8231 c-39 -46 -51 -72 -33 -71 8 1 92 104 92 114 0 17 -22 1
-59 -43z"/>
<path d="M3090 7936 c0 -19 67 -58 76 -45 3 6 4 11 3 13 -30 22 -68 46 -73 46
-3 0 -6 -6 -6 -14z"/>
<path d="M3270 7818 c0 -14 108 -88 128 -88 25 0 10 16 -50 55 -74 49 -78 50
-78 33z"/>
<path d="M2040 7621 c0 -4 111 -48 248 -96 136 -48 353 -125 482 -171 129 -46
240 -84 248 -84 50 0 -31 35 -288 127 -714 252 -690 244 -690 224z"/>
<path d="M7803 7435 c-31 -13 -45 -35 -23 -35 21 0 80 29 80 39 0 15 -18 13
-57 -4z"/>
<path d="M7563 7342 c-35 -14 -63 -31 -63 -39 0 -17 3 -16 79 15 36 15 66 33
69 40 5 17 -14 14 -85 -16z"/>
<path d="M6507 7013 c-12 -11 -8 -23 8 -23 8 0 15 7 15 15 0 16 -12 20 -23 8z"/>
<path d="M6447 6924 c-8 -8 3 -34 14 -34 11 0 12 27 0 34 -4 3 -11 3 -14 0z"/>
<path d="M8440 6885 c-179 -24 -404 -53 -500 -65 -163 -21 -203 -31 -188 -46
4 -3 235 24 515 60 279 37 514 66 521 66 6 0 12 7 12 15 0 19 24 21 -360 -30z"/>
<path d="M6300 6911 c0 -6 5 -13 10 -16 6 -3 10 1 10 9 0 9 -4 16 -10 16 -5 0
-10 -4 -10 -9z"/>
<path d="M6313 6823 c10 -102 19 -145 29 -135 5 5 4 35 -3 73 -6 35 -12 76
-12 92 0 15 -4 27 -10 27 -6 0 -7 -23 -4 -57z"/>
<path d="M2570 6751 c0 -8 47 -21 76 -21 8 0 14 7 14 15 0 11 -12 15 -45 15
-25 0 -45 -4 -45 -9z"/>
<path d="M2792 6729 c5 -14 154 -36 166 -24 14 13 -19 24 -92 31 -65 6 -78 5
-74 -7z"/>
<path d="M3050 6700 c0 -5 1 -10 3 -10 1 0 61 -7 132 -15 162 -18 188 -19 183
-3 -8 22 -318 49 -318 28z"/>
<path d="M7682 6218 c5 -14 153 -36 165 -24 14 14 -15 24 -91 30 -62 6 -77 4
-74 -6z"/>
<path d="M7980 6186 c0 -11 9 -16 29 -16 16 0 36 -3 45 -6 11 -4 16 -1 16 10
0 9 -6 16 -14 16 -7 0 -28 3 -45 6 -24 5 -31 3 -31 -10z"/>
<path d="M2585 6124 c-137 -18 -361 -48 -497 -65 -187 -25 -248 -36 -248 -46
0 -11 11 -12 48 -8 792 103 996 132 1000 143 5 17 -12 15 -303 -24z"/>
<path d="M7612 5649 c4 -11 37 -24 268 -104 69 -24 253 -89 410 -144 156 -56
290 -101 297 -101 7 0 13 5 13 10 0 6 -2 10 -4 10 -2 0 -55 18 -117 41 -116
41 -226 80 -424 150 -60 21 -180 63 -265 93 -160 58 -184 64 -178 45z"/>
<path d="M3070 5614 c-66 -25 -88 -39 -78 -49 10 -10 148 47 148 61 0 8 -1 14
-2 14 -2 -1 -32 -12 -68 -26z"/>
<path d="M2813 5515 c-38 -16 -46 -40 -10 -29 50 15 67 24 67 34 0 14 -18 12
-57 -5z"/>
<path d="M7235 5190 c14 -23 124 -90 130 -79 4 6 5 12 4 13 -2 2 -29 19 -59
40 -53 35 -88 47 -75 26z"/>
<path d="M3320 5067 c-41 -29 -169 -120 -285 -202 -115 -82 -267 -189 -337
-238 -117 -82 -144 -107 -119 -107 5 0 79 49 163 108 555 391 658 465 658 478
0 8 -1 14 -2 14 -2 -1 -37 -24 -78 -53z"/>
<path d="M7470 5041 c0 -10 62 -61 73 -61 19 0 3 28 -26 48 -36 24 -47 27 -47
13z"/>
<path d="M3853 4716 c-40 -50 -53 -77 -35 -75 12 1 101 116 95 123 -11 11 -17
6 -60 -48z"/>
<path d="M3695 4524 c-15 -19 -24 -38 -20 -42 7 -7 65 56 65 70 0 18 -19 6
-45 -28z"/>
<path d="M8730 4360 c0 -53 2 -60 20 -60 18 0 20 7 20 60 0 53 -2 60 -20 60
-18 0 -20 -7 -20 -60z"/>
<path d="M6390 4265 c0 -28 31 -78 41 -68 7 7 4 23 -8 46 -19 38 -33 47 -33
22z"/>
<path d="M5007 4063 c-5 -42 -1 -56 14 -48 12 8 12 85 0 85 -5 0 -11 -17 -14
-37z"/>
<path d="M3060 2781 c0 -6 17 -11 38 -13 l37 -3 -2 -97 c-1 -79 1 -98 13 -98
11 0 14 20 14 100 l0 100 35 0 c19 0 35 5 35 10 0 6 -35 10 -85 10 -47 0 -85
-4 -85 -9z"/>
<path d="M3280 2696 c0 -87 2 -96 22 -110 32 -23 94 -20 118 4 17 17 20 33 20
110 0 53 -4 90 -10 90 -6 0 -10 -33 -10 -78 0 -90 -15 -122 -59 -122 -48 0
-61 26 -61 118 0 48 -4 82 -10 82 -6 0 -10 -38 -10 -94z"/>
<path d="M3490 2770 c0 -5 16 -10 35 -10 l35 0 0 -101 c0 -76 3 -100 13 -97 8
3 13 35 15 101 l3 97 34 0 c19 0 35 5 35 10 0 6 -35 10 -85 10 -50 0 -85 -4
-85 -10z"/>
<path d="M3728 2752 c-27 -25 -32 -36 -32 -81 -1 -47 2 -56 32 -82 34 -31 85
-39 123 -19 28 15 49 63 49 110 0 91 -102 133 -172 72z m112 -2 c10 -5 24 -26
30 -45 30 -91 -61 -164 -125 -100 -70 69 10 191 95 145z"/>
<path d="M3956 2734 c-3 -26 -6 -75 -6 -110 0 -50 3 -64 15 -64 11 0 15 12 15
50 l0 50 36 0 c56 0 74 -15 74 -60 0 -29 4 -40 15 -40 12 0 14 8 9 43 -4 23
-10 47 -15 52 -4 6 -1 19 7 29 39 54 1 96 -87 96 l-56 0 -7 -46z m122 17 c8
-5 12 -21 10 -37 -3 -27 -6 -29 -55 -32 l-53 -3 0 40 0 41 43 0 c23 0 48 -4
55 -9z"/>
<path d="M4278 2751 c-29 -26 -33 -35 -33 -81 0 -46 4 -55 33 -81 34 -31 85
-39 123 -19 28 15 49 63 49 110 0 91 -102 133 -172 71z m112 -1 c24 -13 41
-63 34 -100 -21 -104 -154 -86 -154 20 0 69 63 111 120 80z"/>
<path d="M4500 2670 c0 -91 3 -110 15 -110 11 0 15 12 15 50 l0 50 50 0 c28 0
50 5 50 10 0 6 -22 10 -50 10 l-50 0 0 40 0 40 60 0 c33 0 60 4 60 10 0 6 -32
10 -75 10 l-75 0 0 -110z"/>
<path d="M4750 2770 c0 -5 19 -10 42 -10 l41 0 -6 -100 c-5 -84 -4 -100 8
-100 12 0 15 19 15 100 l0 100 35 0 c19 0 35 5 35 10 0 6 -35 10 -85 10 -50 0
-85 -4 -85 -10z"/>
<path d="M4970 2670 c0 -67 4 -110 10 -110 6 0 10 23 10 50 l0 50 60 0 60 0 0
-50 c0 -27 5 -50 10 -50 6 0 10 43 10 110 0 62 -4 110 -9 110 -6 0 -11 -21
-13 -47 l-3 -48 -57 -3 -58 -3 0 51 c0 27 -4 50 -10 50 -6 0 -10 -43 -10 -110z"/>
<path d="M5200 2660 l0 -110 75 0 c91 0 101 18 13 22 l-63 3 -3 38 -3 37 60 0
c77 0 80 18 4 22 l-58 3 0 35 0 35 63 3 c88 4 78 22 -13 22 l-75 0 0 -110z"/>
<path d="M5480 2660 c0 -67 4 -110 10 -110 6 0 10 36 10 87 0 47 3 83 7 79 4
-4 19 -42 33 -84 15 -44 33 -78 41 -80 10 -2 23 23 44 85 l30 88 3 -87 c4
-128 22 -109 22 22 0 100 -2 110 -18 110 -14 0 -25 -20 -47 -90 -16 -49 -31
-90 -35 -90 -3 0 -18 41 -34 90 -23 71 -32 90 -47 90 -17 0 -19 -9 -19 -110z"/>
<path d="M5768 2741 c-30 -26 -33 -35 -32 -82 0 -45 5 -56 32 -81 34 -30 86
-37 123 -18 55 30 65 144 14 187 -39 34 -96 31 -137 -6z m117 -8 c40 -39 41
-98 2 -140 -47 -52 -127 -10 -127 67 0 72 79 119 125 73z"/>
<path d="M5996 2709 c-11 -106 -8 -159 9 -159 11 0 15 19 17 88 l3 87 54 -87
c29 -49 60 -88 67 -88 11 0 14 24 14 110 0 67 -4 110 -10 110 -6 0 -10 -35
-10 -86 0 -47 -4 -83 -9 -80 -4 3 -30 42 -57 86 -27 44 -54 80 -60 80 -6 0
-14 -27 -18 -61z"/>
<path d="M6210 2760 c0 -5 16 -10 35 -10 l35 0 0 -101 c0 -76 3 -100 13 -97 8
3 13 35 15 101 l3 97 34 0 c19 0 35 5 35 10 0 6 -35 10 -85 10 -50 0 -85 -4
-85 -10z"/>
<path d="M6420 2660 c0 -91 3 -110 15 -110 11 0 15 12 15 50 l0 50 55 0 55 0
0 -51 c0 -36 4 -49 13 -47 8 3 13 37 15 111 2 91 0 107 -13 107 -11 0 -15 -12
-15 -50 l0 -50 -55 0 -55 0 0 50 c0 38 -4 50 -15 50 -12 0 -15 -19 -15 -110z"/>
<path d="M6910 2650 l0 -110 54 0 c44 0 61 5 83 24 25 22 28 31 28 86 0 55 -3
64 -28 86 -22 19 -39 24 -83 24 l-54 0 0 -110z m120 70 c14 -14 20 -33 20 -68
0 -65 -16 -85 -71 -86 l-44 -1 -3 88 -3 87 41 0 c27 0 47 -7 60 -20z"/>
<path d="M7195 2748 c-70 -195 -74 -208 -61 -208 8 0 20 16 26 35 11 33 14 35
55 35 41 0 44 -2 55 -35 6 -19 18 -35 27 -35 8 0 12 6 10 13 -3 6 -20 56 -38
110 -26 75 -37 97 -51 97 -10 0 -21 -6 -23 -12z m43 -80 l10 -38 -33 0 -34 0
16 46 c17 50 26 48 41 -8z"/>
<path d="M7330 2750 c0 -5 19 -10 42 -10 l41 0 -6 -100 c-5 -84 -4 -100 8
-100 12 0 15 19 15 100 l0 100 35 0 c19 0 35 5 35 10 0 6 -35 10 -85 10 -50 0
-85 -4 -85 -10z"/>
<path d="M7605 2743 c-49 -121 -73 -203 -61 -203 8 0 20 16 26 35 11 33 14 35
55 35 41 0 44 -2 55 -35 6 -19 18 -35 27 -35 8 0 12 6 10 13 -3 6 -20 56 -38
110 -25 71 -38 97 -50 97 -9 0 -20 -8 -24 -17z m41 -74 l12 -39 -33 0 -34 0
16 46 c17 51 23 50 39 -7z"/>
<path d="M6710 2610 c0 -5 18 -10 41 -10 24 0 38 4 34 10 -3 6 -22 10 -41 10
-19 0 -34 -4 -34 -10z"/>
<path d="M4751 2203 c-19 -54 -36 -104 -39 -110 -2 -7 2 -13 10 -13 9 0 19 15
24 33 9 30 13 32 54 32 41 0 45 -2 54 -32 5 -18 15 -33 22 -33 18 0 18 0 -20
115 -46 138 -60 139 -105 8z m79 -19 c0 -9 -11 -14 -30 -14 -34 0 -36 6 -14
58 l15 37 15 -34 c8 -18 14 -40 14 -47z"/>
<path d="M4940 2216 c0 -69 4 -88 21 -110 28 -36 89 -37 124 -1 23 22 25 32
25 110 0 69 -3 85 -15 85 -12 0 -15 -17 -15 -90 0 -87 -1 -91 -25 -102 -18 -8
-35 -9 -53 -2 -26 9 -27 11 -30 102 -2 73 -6 92 -17 92 -12 0 -15 -17 -15 -84z"/>
<path d="M5189 2269 c-22 -23 -29 -41 -29 -71 0 -45 22 -93 49 -108 29 -15 87
-12 101 5 7 8 16 15 21 15 5 0 9 -7 9 -15 0 -8 5 -15 10 -15 7 0 10 22 8 58
l-3 57 -42 3 c-34 2 -43 0 -43 -12 0 -11 10 -16 30 -16 37 0 42 -31 8 -54 -31
-22 -60 -20 -92 5 -22 17 -26 28 -26 69 0 38 5 54 22 70 29 26 76 26 105 -2
31 -29 42 -14 13 17 -36 38 -102 35 -141 -6z"/>
<path d="M5497 2293 c-15 -14 -5 -20 31 -19 34 1 37 -1 40 -29 2 -24 -7 -42
-43 -83 -61 -73 -59 -82 15 -82 33 0 60 4 60 10 0 6 -20 10 -45 10 -25 0 -45
2 -45 5 0 3 20 30 45 61 46 56 53 80 35 115 -8 14 -21 19 -49 19 -21 0 -41 -3
-44 -7z"/>
<path d="M5661 2264 c-35 -44 -26 -160 13 -186 20 -14 56 -8 76 12 25 25 28
126 5 170 -21 40 -65 41 -94 4z m79 -13 c13 -25 13 -102 0 -135 -14 -39 -55
-36 -69 5 -14 40 -14 64 0 112 8 30 15 37 34 37 14 0 29 -8 35 -19z"/>
<path d="M5837 2283 c-14 -13 -6 -18 30 -18 34 0 38 -3 41 -26 2 -20 -10 -42
-47 -87 -28 -34 -51 -66 -51 -72 0 -6 25 -10 60 -10 70 0 81 18 13 22 l-46 3
46 54 c49 57 61 103 35 129 -13 13 -70 17 -81 5z"/>
<path d="M6001 2266 c-13 -14 -18 -26 -12 -30 5 -4 12 -2 16 4 17 27 25 2 25
-80 0 -53 4 -90 10 -90 6 0 10 43 10 110 0 120 -7 131 -49 86z"/>
<path d="M8544 1225 c0 -88 2 -123 3 -77 2 46 2 118 0 160 -1 42 -3 5 -3 -83z"/>
<path d="M8670 1365 c-7 -8 -11 -15 -9 -16 56 -12 72 -6 47 19 -16 16 -23 15
-38 -3z"/>
<path d="M8667 1273 c-13 -12 -7 -33 8 -33 8 0 15 -6 15 -14 0 -28 -12 -46
-31 -46 -16 0 -18 -2 -7 -14 7 -8 16 -12 21 -9 4 2 7 -6 7 -18 0 -21 2 -20 27
10 24 29 28 31 34 14 5 -12 8 -2 8 27 1 26 -6 55 -15 68 -14 21 -53 30 -67 15z"/>
<path d="M1566 1253 c-3 -3 -6 -19 -6 -35 0 -18 -5 -28 -15 -28 -8 0 -15 -7
-15 -15 0 -8 7 -15 15 -15 12 0 15 -16 15 -80 0 -73 2 -81 24 -95 15 -10 33
-14 50 -9 36 9 33 22 -6 26 l-33 3 -3 77 -3 77 33 3 c42 4 43 22 1 26 -29 3
-33 7 -33 32 0 29 -12 45 -24 33z"/>
<path d="M7748 1201 c-2 -16 -1 -51 3 -77 l6 -49 2 45 c2 25 3 60 4 78 2 40
-9 43 -15 3z"/>
<path d="M8575 1220 c-3 -5 -1 -10 4 -10 6 0 11 5 11 10 0 6 -2 10 -4 10 -3 0
-8 -4 -11 -10z"/>
<path d="M7336 1179 c-9 -46 -7 -101 3 -95 5 3 7 16 3 28 -3 14 -2 19 6 14 7
-4 13 -17 13 -29 1 -17 3 -15 9 8 l8 30 1 -27 c0 -16 6 -28 12 -28 8 0 10 15
5 46 -3 26 -6 55 -6 66 0 30 -20 10 -21 -20 -1 -26 -1 -26 -10 6 -5 17 -11 32
-13 32 -2 0 -6 -14 -10 -31z"/>
<path d="M7559 1206 c-7 -7 0 -118 7 -125 2 -2 4 17 4 42 0 62 20 61 22 0 1
-48 1 -48 5 -8 3 22 8 44 12 48 11 11 23 -78 15 -109 -3 -13 -4 -24 0 -24 6 0
23 61 30 115 l6 40 -14 -35 -14 -35 -1 33 c-1 29 -4 32 -30 32 -19 0 -31 6
-33 16 -2 9 -6 13 -9 10z"/>
<path d="M7806 1194 c-8 -20 -8 -62 0 -91 6 -22 34 -33 34 -13 0 6 -4 10 -10
10 -5 0 -10 23 -10 51 0 31 4 48 10 44 6 -3 10 -1 10 4 0 17 -27 13 -34 -5z"/>
<path d="M8270 1158 c0 -29 5 -60 10 -68 7 -11 10 5 10 53 0 38 -4 67 -10 67
-5 0 -10 -24 -10 -52z"/>
<path d="M703 1163 c-12 -18 -18 -46 -18 -85 0 -85 22 -102 128 -99 26 1 37 5
35 13 -3 8 -21 11 -50 9 -36 -2 -51 2 -67 18 -39 39 -28 51 49 51 l70 0 0 40
c0 55 -26 80 -85 80 -37 0 -47 -4 -62 -27z m101 -9 c9 -8 16 -24 16 -35 0 -16
-7 -19 -56 -19 -53 0 -55 1 -49 23 14 44 60 61 89 31z"/>
<path d="M917 1172 c-19 -20 -23 -87 -7 -97 16 -10 12 -85 -6 -102 -18 -19
-11 -62 13 -80 9 -7 39 -13 65 -13 39 0 54 5 73 25 50 49 18 105 -60 105 -38
0 -45 3 -45 20 0 15 7 20 29 20 44 0 73 29 73 73 0 25 5 37 14 37 8 0 14 7 14
15 0 24 -141 21 -163 -3z m91 -11 c8 -5 12 -22 10 -42 -3 -32 -5 -34 -43 -34
-36 0 -40 3 -43 28 -6 47 36 74 76 48z m35 -195 c3 -8 3 -24 0 -36 -5 -18 -12
-21 -57 -18 -52 3 -66 17 -52 54 7 19 102 20 109 0z"/>
<path d="M1100 1187 c0 -2 4 -17 9 -33 6 -16 19 -62 31 -101 14 -51 26 -73 36
-73 10 0 14 -6 11 -14 -3 -8 -9 -31 -13 -52 -5 -29 -4 -36 7 -32 8 3 30 60 51
129 51 171 53 179 34 179 -8 0 -17 -8 -20 -17 -37 -130 -48 -163 -55 -163 -5
0 -19 39 -33 88 -17 60 -30 88 -41 90 -10 2 -17 2 -17 -1z"/>
<path d="M1322 1036 c3 -126 5 -151 18 -151 11 0 16 13 18 49 3 42 6 47 23 43
29 -8 87 11 99 33 16 29 12 132 -5 158 -14 19 -24 21 -86 20 l-70 -1 3 -151z
m126 106 c6 -9 12 -35 12 -59 0 -53 -28 -86 -68 -81 -26 3 -27 5 -30 80 -3 73
-2 77 20 80 30 5 50 -1 66 -20z"/>
<path d="M7413 1130 c0 -30 2 -43 4 -27 2 15 2 39 0 55 -2 15 -4 2 -4 -28z"/>
<path d="M7440 1128 l4 -53 7 50 6 50 2 -50 c1 -33 4 -45 10 -35 14 25 1 90
-18 90 -13 0 -15 -9 -11 -52z"/>
<path d="M7493 1130 c0 -30 2 -43 4 -27 2 15 2 39 0 55 -2 15 -4 2 -4 -28z"/>
<path d="M7516 1171 c-4 -5 -2 -21 4 -36 13 -33 13 -48 0 -40 -5 3 -10 1 -10
-4 0 -6 7 -11 15 -11 11 0 14 11 12 50 -2 47 -9 61 -21 41z"/>
<path d="M7694 1156 c-8 -34 3 -79 19 -73 7 2 12 22 12 47 0 49 -21 66 -31 26z
m23 -43 c-4 -17 -4 -17 -12 0 -4 9 -4 25 0 35 8 16 8 16 12 0 3 -10 3 -26 0
-35z"/>
<path d="M7850 1130 c0 -37 4 -50 15 -50 8 0 17 11 21 25 8 34 -3 75 -21 75
-11 0 -15 -13 -15 -50z m23 11 c2 -10 1 -25 -4 -32 -6 -10 -9 -4 -9 19 0 36 5
42 13 13z"/>
<path d="M7902 1128 l1 -53 7 45 7 45 1 -43 c2 -52 21 -47 24 6 1 37 1 37 8
-8 l7 -45 1 53 c2 52 2 52 -28 52 -30 0 -30 0 -28 -52z"/>
<path d="M7970 1136 c0 -59 20 -71 22 -14 l1 43 7 -45 7 -45 3 45 3 45 7 -45
7 -45 1 53 c2 52 2 52 -28 52 -29 0 -30 -2 -30 -44z"/>
<path d="M8051 1175 c-5 -17 -3 -86 2 -92 3 -3 11 -3 19 -1 10 2 11 16 7 53
l-6 50 -3 -50 -3 -50 -7 50 c-4 28 -8 46 -9 40z"/>
<path d="M8102 1128 l1 -53 7 45 c7 44 7 44 10 10 1 -19 2 -38 1 -42 0 -5 4
-8 10 -8 6 0 9 19 7 47 -2 36 -7 49 -20 51 -16 3 -18 -4 -16 -50z"/>
<path d="M8153 1130 c0 -30 2 -43 4 -27 2 15 2 39 0 55 -2 15 -4 2 -4 -28z"/>
<path d="M8180 1130 c0 -38 4 -50 15 -50 8 0 15 5 15 10 0 6 -4 10 -10 10 -5
0 -10 14 -10 30 0 17 5 30 10 30 6 0 10 5 10 10 0 6 -7 10 -15 10 -11 0 -15
-12 -15 -50z"/>
<path d="M8226 1171 c-4 -5 0 -11 6 -14 10 -4 11 -7 1 -18 -21 -21 -16 -59 7
-59 15 0 20 7 20 28 0 55 -18 89 -34 63z"/>
<path d="M8308 1146 c-2 -19 -1 -43 3 -53 5 -11 8 2 8 35 1 59 -5 69 -11 18z"/>
<path d="M8337 1174 c-10 -10 -8 -67 3 -84 15 -24 32 2 28 45 -3 37 -16 53
-31 39z m23 -45 c0 -17 -4 -28 -10 -24 -5 3 -10 17 -10 31 0 13 5 24 10 24 6
0 10 -14 10 -31z"/>
<path d="M8387 1133 c7 -64 13 -67 15 -7 l1 49 7 -50 7 -50 1 53 c2 45 0 52
-17 52 -17 0 -19 -5 -14 -47z"/>
<path d="M8434 1166 c-3 -8 0 -25 7 -37 9 -17 9 -24 0 -27 -16 -5 -14 -22 4
-22 11 0 14 12 12 50 -2 49 -12 64 -23 36z"/>
<path d="M8560 1170 c0 -5 5 -10 10 -10 6 0 10 5 10 10 0 6 -4 10 -10 10 -5 0
-10 -4 -10 -10z"/>
<path d="M8680 1077 c0 -11 -6 -15 -17 -11 -17 5 -17 5 -1 -8 14 -12 17 -38
20 -162 3 -136 2 -147 -14 -142 -11 2 -18 -1 -18 -10 0 -8 10 -14 23 -14 l23
0 -4 156 c-4 125 -2 158 9 165 12 7 11 11 -3 26 -17 16 -18 16 -18 0z"/>
<path d="M8560 1060 c0 -5 5 -10 10 -10 6 0 10 5 10 10 0 6 -4 10 -10 10 -5 0
-10 -4 -10 -10z"/>
<path d="M8540 890 c-3 -85 -5 -156 -5 -157 0 -1 5 1 10 5 6 4 8 65 5 157 l-6
150 -4 -155z"/>
<path d="M8641 1024 c0 -11 3 -14 6 -6 3 7 2 16 -1 19 -3 4 -6 -2 -5 -13z"/>
<path d="M7597 1008 c-3 -13 -2 -48 2 -78 l9 -55 1 78 c1 78 -3 95 -12 55z"/>
<path d="M8153 955 c0 -55 2 -66 6 -35 l5 45 6 -45 7 -45 1 53 c1 28 -2 52 -7
52 -5 0 -12 12 -14 28 -2 15 -4 -9 -4 -53z"/>
<path d="M8301 958 c0 -43 2 -78 7 -78 4 0 6 24 4 52 -5 95 -9 104 -11 26z"/>
<path d="M7460 1000 c0 -11 -4 -20 -9 -20 -13 0 -22 -46 -15 -75 4 -14 13 -25
23 -25 15 0 17 10 17 70 -1 38 -4 70 -8 70 -5 0 -8 -9 -8 -20z m-3 -92 c-2
-13 -4 -5 -4 17 -1 22 1 32 4 23 2 -10 2 -28 0 -40z"/>
<path d="M7838 994 c-2 -10 -2 -41 2 -69 l6 -50 5 50 c3 28 2 59 -1 69 -7 19
-7 19 -12 0z"/>
<path d="M8015 1000 c-3 -5 -1 -10 4 -10 7 0 11 -24 12 -57 1 -69 6 -60 12 20
3 42 0 57 -9 57 -7 0 -16 -4 -19 -10z"/>
<path d="M7510 940 c0 -33 4 -60 10 -60 6 0 10 27 10 60 0 33 -4 60 -10 60 -6
0 -10 -27 -10 -60z"/>
<path d="M7340 972 c0 -6 6 -13 13 -16 8 -3 7 -8 -5 -16 -26 -16 -24 -60 3
-60 18 0 20 5 17 47 -2 26 -9 48 -15 51 -7 2 -13 -1 -13 -6z m20 -62 c0 -5 -4
-10 -10 -10 -5 0 -10 5 -10 10 0 6 5 10 10 10 6 0 10 -4 10 -10z"/>
<path d="M7383 930 c2 -61 16 -67 19 -7 l1 42 7 -45 7 -45 1 53 c2 45 0 52
-17 52 -17 0 -19 -7 -18 -50z"/>
<path d="M7542 928 c1 -50 2 -51 5 -10 2 23 8 42 13 42 5 0 11 -19 13 -42 4
-39 4 -38 3 7 -1 39 -5 51 -18 53 -16 3 -18 -4 -16 -50z"/>
<path d="M7629 956 c-14 -30 -4 -76 16 -76 11 0 15 12 15 44 0 52 -15 68 -31
32z m18 -48 c-2 -13 -4 -5 -4 17 -1 22 1 32 4 23 2 -10 2 -28 0 -40z"/>
<path d="M7680 928 c0 -28 2 -49 4 -47 8 9 13 99 5 99 -5 0 -9 -23 -9 -52z"/>
<path d="M7712 928 c1 -51 2 -51 5 -10 2 23 8 42 14 42 5 0 10 -19 11 -42 l1
-43 7 45 6 45 5 -45 6 -45 1 53 c2 52 2 52 -28 52 -30 0 -30 0 -28 -52z"/>
<path d="M7790 972 c0 -6 6 -13 13 -16 8 -3 7 -8 -5 -16 -26 -16 -24 -60 3
-60 18 0 20 5 17 47 -2 26 -9 48 -15 51 -7 2 -13 -1 -13 -6z m20 -62 c0 -5 -4
-10 -10 -10 -5 0 -10 5 -10 10 0 6 5 10 10 10 6 0 10 -4 10 -10z"/>
<path d="M7873 930 c0 -30 2 -43 4 -27 2 15 2 39 0 55 -2 15 -4 2 -4 -28z"/>
<path d="M7895 947 c-8 -39 10 -86 27 -69 13 13 6 94 -9 99 -7 3 -15 -10 -18
-30z m22 -39 c-2 -13 -4 -5 -4 17 -1 22 1 32 4 23 2 -10 2 -28 0 -40z"/>
<path d="M7949 976 c-2 -3 -2 -26 0 -53 l5 -48 7 45 6 45 1 -42 c1 -24 7 -43
13 -43 7 0 9 9 5 23 -3 12 -6 34 -6 50 0 24 -17 36 -31 23z"/>
<path d="M8059 965 c-1 -8 -2 -25 -3 -37 -3 -30 12 -60 26 -52 7 4 6 9 -3 15
-11 6 -11 12 0 33 14 26 9 56 -9 56 -5 0 -11 -7 -11 -15z m18 -27 c-3 -8 -6
-5 -6 6 -1 11 2 17 5 13 3 -3 4 -12 1 -19z"/>
<path d="M8104 956 c-10 -39 -1 -71 21 -74 18 -2 18 -2 3 8 -19 12 -24 55 -8
65 13 8 13 25 0 25 -5 0 -12 -11 -16 -24z"/>
<path d="M8198 973 c-2 -5 -1 -28 3 -53 l6 -45 3 45 3 45 7 -45 7 -45 1 53 c2
39 -2 52 -12 52 -8 0 -16 -3 -18 -7z"/>
<path d="M8257 973 c-4 -3 -7 -26 -7 -50 0 -31 4 -43 14 -43 19 0 29 33 21 70
-6 29 -15 37 -28 23z m10 -65 c-2 -13 -4 -5 -4 17 -1 22 1 32 4 23 2 -10 2
-28 0 -40z"/>
<path d="M8337 973 c-11 -10 -8 -91 2 -98 17 -10 32 33 25 70 -6 34 -14 42
-27 28z m10 -65 c-2 -13 -4 -5 -4 17 -1 22 1 32 4 23 2 -10 2 -28 0 -40z"/>
<path d="M8380 951 c0 -17 5 -42 12 -56 9 -21 9 -31 -1 -47 -10 -16 -10 -19 1
-16 8 3 16 28 19 62 4 31 9 59 11 62 9 9 18 -76 12 -103 -5 -17 -3 -24 3 -20
12 8 38 135 30 144 -3 3 -10 -10 -16 -28 l-9 -34 -1 30 c-1 27 -5 31 -31 33
-27 2 -30 -1 -30 -27z m17 -23 c-3 -7 -5 -2 -5 12 0 14 2 19 5 13 2 -7 2 -19
0 -25z"/>
<path d="M1938 900 c-2 -6 -2 -31 0 -55 4 -39 7 -45 26 -44 16 1 17 2 4 6 -13
3 -18 14 -18 38 0 18 4 35 9 37 5 2 3 8 -4 15 -8 8 -15 8 -17 3z"/>
<path d="M2118 900 c-2 -7 -1 -31 2 -54 4 -31 10 -41 25 -44 18 -2 18 -2 3 8
-11 6 -18 23 -18 40 0 22 5 30 18 31 13 0 14 2 2 6 -8 3 -18 10 -21 16 -4 5
-8 4 -11 -3z"/>
<path d="M1811 841 l2 -46 6 40 c4 26 12 41 23 43 13 3 18 -6 20 -40 3 -33 6
-39 12 -24 15 31 -5 71 -37 72 -26 1 -27 -1 -26 -45z"/>
<path d="M1903 845 c0 -27 2 -38 4 -22 2 15 2 37 0 50 -2 12 -4 0 -4 -28z"/>
<path d="M2058 880 c30 -13 28 -30 -3 -30 -20 0 -25 -5 -25 -25 0 -21 4 -24
33 -23 33 1 33 1 27 42 -4 35 -9 41 -30 43 -25 3 -25 3 -2 -7z m20 -52 c-7
-19 -38 -22 -38 -4 0 10 9 16 21 16 12 0 19 -5 17 -12z"/>
<path d="M2302 881 c-8 -5 -12 -22 -10 -42 3 -30 7 -34 33 -36 27 -2 28 -1 6
5 -37 11 -38 32 -2 32 27 0 30 2 22 23 -9 24 -29 32 -49 18z m38 -16 c0 -8 -9
-15 -20 -15 -20 0 -26 11 -13 23 12 13 33 7 33 -8z"/>
<path d="M1773 840 c0 -25 2 -35 4 -22 2 12 2 32 0 45 -2 12 -4 2 -4 -23z"/>
<path d="M1990 838 c1 -33 3 -39 10 -26 11 18 10 68 -2 68 -4 0 -8 -19 -8 -42z"/>
<path d="M2172 840 c-1 -22 3 -40 8 -40 6 0 10 18 10 40 0 22 -4 40 -8 40 -5
0 -9 -18 -10 -40z"/>
<path d="M2215 850 c8 -41 21 -58 34 -44 5 5 12 25 16 44 4 26 3 31 -4 20 -6
-8 -11 -23 -11 -32 0 -10 -4 -18 -10 -18 -5 0 -10 8 -10 18 0 9 -5 24 -11 32
-7 11 -8 6 -4 -20z"/>
</g>
</svg>
